<svg width="143" height="38" viewBox="0 0 143 38" fill="none" xmlns="http://www.w3.org/2000/svg">
<path fill-rule="evenodd" clip-rule="evenodd" d="M14.5 4.5C22.5084 4.5 29 10.9917 29 19C29 27.0084 22.5084 33.5 14.5 33.5C6.49165 33.5 0 27.0084 0 19C0 10.9917 6.49165 4.5 14.5 4.5ZM15.225 20.45H6.235C5.85044 20.45 5.48162 20.6028 5.2097 20.8747C4.93777 21.1466 4.785 21.5154 4.785 21.9C4.785 22.2846 4.93777 22.6534 5.2097 22.9253C5.48162 23.1972 5.85044 23.35 6.235 23.35H6.9803L6.56415 24.091C6.47104 24.2572 6.41158 24.4401 6.38917 24.6293C6.36675 24.8186 6.38183 25.0103 6.43354 25.1937C6.48524 25.3771 6.57256 25.5485 6.6905 25.6982C6.80845 25.8478 6.95472 25.9727 7.12095 26.0658C7.28718 26.159 7.47013 26.2184 7.65934 26.2408C7.84856 26.2632 8.04033 26.2482 8.22372 26.1965C8.4071 26.1448 8.57851 26.0574 8.72815 25.9395C8.87779 25.8216 9.00274 25.6753 9.09585 25.5091L10.3037 23.35H15.225C15.6096 23.35 15.9784 23.1972 16.2503 22.9253C16.5222 22.6534 16.675 22.2846 16.675 21.9C16.675 21.5154 16.5222 21.1466 16.2503 20.8747C15.9784 20.6028 15.6096 20.45 15.225 20.45ZM17.9699 16.1174C17.7907 15.7917 17.4933 15.5472 17.139 15.4344C16.7848 15.3217 16.4008 15.3493 16.0663 15.5116C15.7318 15.6739 15.4725 15.9585 15.3418 16.3065C15.2112 16.6546 15.2192 17.0395 15.3642 17.3818L15.4396 17.5341L19.9056 25.5091C20.0865 25.8315 20.3837 26.0727 20.7365 26.1833C21.0893 26.2939 21.471 26.2655 21.8035 26.1041C22.1361 25.9426 22.3945 25.6602 22.5257 25.3145C22.657 24.9689 22.6513 24.5862 22.5098 24.2446L22.4344 24.091L22.0197 23.3515H22.765C23.1368 23.3544 23.4956 23.2144 23.7671 22.9603C24.0386 22.7063 24.2022 22.3576 24.224 21.9864C24.2458 21.6152 24.1241 21.2498 23.8841 20.9658C23.6442 20.6817 23.3043 20.5007 22.9347 20.4602L22.765 20.45H20.3957L17.9699 16.1174ZM14.3159 9.5924C14.1367 9.26665 13.8393 9.02216 13.485 8.90942C13.1308 8.79668 12.7468 8.82432 12.4123 8.98662C12.0778 9.14892 11.8185 9.43348 11.6878 9.78152C11.5572 10.1296 11.5652 10.5145 11.7102 10.8568L11.7842 11.009L12.8383 12.8897L10.2182 17.5674C10.0358 17.8904 9.98422 18.2709 10.0739 18.6308C10.1636 18.9907 10.3878 19.3025 10.7003 19.5022C11.0129 19.7018 11.3901 19.7741 11.7543 19.7041C12.1185 19.6342 12.4421 19.4274 12.6585 19.1262L12.7499 18.9841L17.2159 11.009C17.4006 10.686 17.4541 10.3042 17.3652 9.94281C17.2762 9.58141 17.0518 9.26803 16.7382 9.06756C16.4246 8.86708 16.046 8.79485 15.6806 8.86583C15.3153 8.93681 14.9912 9.14555 14.7755 9.44885L14.6856 9.59095L14.5 9.923L14.3159 9.5924Z" fill="white"/>
<path d="M40.3457 6.566L40.6957 5.754C40.9057 5.88 41.1297 5.978 41.3677 6.048C41.6104 6.11333 41.8461 6.15067 42.0747 6.16C42.3081 6.16467 42.5181 6.14133 42.7047 6.09C42.8961 6.03867 43.0477 5.96167 43.1597 5.859C43.2764 5.75633 43.3347 5.62567 43.3347 5.467C43.3347 5.28033 43.2577 5.14267 43.1037 5.054C42.9497 4.96067 42.7444 4.914 42.4877 4.914H41.2907V4.06H42.4037C42.6324 4.06 42.8097 4.01333 42.9357 3.92C43.0664 3.82667 43.1317 3.69833 43.1317 3.535C43.1317 3.395 43.0851 3.283 42.9917 3.199C42.8984 3.11033 42.7701 3.045 42.6067 3.003C42.4481 2.961 42.2684 2.94233 42.0677 2.947C41.8671 2.95167 41.6594 2.98433 41.4447 3.045C41.2301 3.10567 41.0247 3.18967 40.8287 3.297L40.4857 2.422C40.8031 2.25867 41.1367 2.14667 41.4867 2.086C41.8414 2.02067 42.1821 2.00433 42.5087 2.037C42.8401 2.065 43.1387 2.13967 43.4047 2.261C43.6707 2.37767 43.8831 2.53167 44.0417 2.723C44.2004 2.91433 44.2797 3.14067 44.2797 3.402C44.2797 3.63533 44.2191 3.843 44.0977 4.025C43.9764 4.207 43.8061 4.347 43.5867 4.445C43.3721 4.543 43.1247 4.592 42.8447 4.592L42.8727 4.34C43.1994 4.34 43.4817 4.396 43.7197 4.508C43.9624 4.61533 44.1491 4.767 44.2797 4.963C44.4151 5.15433 44.4827 5.376 44.4827 5.628C44.4827 5.86133 44.4197 6.07133 44.2937 6.258C44.1724 6.44 44.0044 6.594 43.7897 6.72C43.5751 6.846 43.3301 6.93933 43.0547 7C42.7794 7.06067 42.4854 7.08633 42.1727 7.077C41.8647 7.06767 41.5544 7.02333 41.2417 6.944C40.9291 6.86 40.6304 6.734 40.3457 6.566ZM47.5505 7V6.265L47.4805 6.104V4.788C47.4805 4.55467 47.4082 4.37267 47.2635 4.242C47.1235 4.11133 46.9065 4.046 46.6125 4.046C46.4118 4.046 46.2135 4.07867 46.0175 4.144C45.8262 4.20467 45.6628 4.28867 45.5275 4.396L45.1355 3.633C45.3408 3.48833 45.5882 3.37633 45.8775 3.297C46.1668 3.21767 46.4608 3.178 46.7595 3.178C47.3335 3.178 47.7792 3.31333 48.0965 3.584C48.4138 3.85467 48.5725 4.277 48.5725 4.851V7H47.5505ZM46.4025 7.056C46.1085 7.056 45.8565 7.007 45.6465 6.909C45.4365 6.80633 45.2755 6.66867 45.1635 6.496C45.0515 6.32333 44.9955 6.12967 44.9955 5.915C44.9955 5.691 45.0492 5.495 45.1565 5.327C45.2685 5.159 45.4435 5.02833 45.6815 4.935C45.9195 4.837 46.2298 4.788 46.6125 4.788H47.6135V5.425H46.7315C46.4748 5.425 46.2975 5.467 46.1995 5.551C46.1062 5.635 46.0595 5.74 46.0595 5.866C46.0595 6.006 46.1132 6.118 46.2205 6.202C46.3325 6.28133 46.4842 6.321 46.6755 6.321C46.8575 6.321 47.0208 6.279 47.1655 6.195C47.3102 6.10633 47.4152 5.978 47.4805 5.81L47.6485 6.314C47.5692 6.55667 47.4245 6.741 47.2145 6.867C47.0045 6.993 46.7338 7.056 46.4025 7.056ZM49.5211 7V3.234H51.4461C51.9174 3.234 52.2861 3.32033 52.5521 3.493C52.8181 3.661 52.9511 3.899 52.9511 4.207C52.9511 4.515 52.8251 4.75767 52.5731 4.935C52.3258 5.10767 51.9968 5.194 51.5861 5.194L51.6981 4.942C52.1554 4.942 52.4961 5.026 52.7201 5.194C52.9488 5.362 53.0631 5.607 53.0631 5.929C53.0631 6.26033 52.9371 6.52167 52.6851 6.713C52.4331 6.90433 52.0481 7 51.5301 7H49.5211ZM50.5221 6.258H51.4391C51.6398 6.258 51.7891 6.22533 51.8871 6.16C51.9898 6.09 52.0411 5.985 52.0411 5.845C52.0411 5.70033 51.9944 5.59533 51.9011 5.53C51.8078 5.46 51.6608 5.425 51.4601 5.425H50.5221V6.258ZM50.5221 4.781H51.3481C51.5394 4.781 51.6818 4.746 51.7751 4.676C51.8731 4.606 51.9221 4.50567 51.9221 4.375C51.9221 4.23967 51.8731 4.13933 51.7751 4.074C51.6818 4.00867 51.5394 3.976 51.3481 3.976H50.5221V4.781ZM56.1296 7V6.265L56.0596 6.104V4.788C56.0596 4.55467 55.9873 4.37267 55.8426 4.242C55.7026 4.11133 55.4856 4.046 55.1916 4.046C54.9909 4.046 54.7926 4.07867 54.5966 4.144C54.4053 4.20467 54.2419 4.28867 54.1066 4.396L53.7146 3.633C53.9199 3.48833 54.1673 3.37633 54.4566 3.297C54.7459 3.21767 55.0399 3.178 55.3386 3.178C55.9126 3.178 56.3583 3.31333 56.6756 3.584C56.9929 3.85467 57.1516 4.277 57.1516 4.851V7H56.1296ZM54.9816 7.056C54.6876 7.056 54.4356 7.007 54.2256 6.909C54.0156 6.80633 53.8546 6.66867 53.7426 6.496C53.6306 6.32333 53.5746 6.12967 53.5746 5.915C53.5746 5.691 53.6283 5.495 53.7356 5.327C53.8476 5.159 54.0226 5.02833 54.2606 4.935C54.4986 4.837 54.8089 4.788 55.1916 4.788H56.1926V5.425H55.3106C55.0539 5.425 54.8766 5.467 54.7786 5.551C54.6853 5.635 54.6386 5.74 54.6386 5.866C54.6386 6.006 54.6923 6.118 54.7996 6.202C54.9116 6.28133 55.0633 6.321 55.2546 6.321C55.4366 6.321 55.5999 6.279 55.7446 6.195C55.8893 6.10633 55.9943 5.978 56.0596 5.81L56.2276 6.314C56.1483 6.55667 56.0036 6.741 55.7936 6.867C55.5836 6.993 55.3129 7.056 54.9816 7.056ZM58.1002 7V3.234H59.1852V4.704H60.8232V3.234H61.9152V7H60.8232V5.593H59.1852V7H58.1002ZM63.7655 7V3.878L64.0105 4.13H62.4915V3.234H66.1245V4.13H64.6055L64.8505 3.878V7H63.7655ZM68.9606 7V6.265L68.8906 6.104V4.788C68.8906 4.55467 68.8183 4.37267 68.6736 4.242C68.5336 4.11133 68.3166 4.046 68.0226 4.046C67.822 4.046 67.6236 4.07867 67.4276 4.144C67.2363 4.20467 67.073 4.28867 66.9376 4.396L66.5456 3.633C66.751 3.48833 66.9983 3.37633 67.2876 3.297C67.577 3.21767 67.871 3.178 68.1696 3.178C68.7436 3.178 69.1893 3.31333 69.5066 3.584C69.824 3.85467 69.9826 4.277 69.9826 4.851V7H68.9606ZM67.8126 7.056C67.5186 7.056 67.2666 7.007 67.0566 6.909C66.8466 6.80633 66.6856 6.66867 66.5736 6.496C66.4616 6.32333 66.4056 6.12967 66.4056 5.915C66.4056 5.691 66.4593 5.495 66.5666 5.327C66.6786 5.159 66.8536 5.02833 67.0916 4.935C67.3296 4.837 67.64 4.788 68.0226 4.788H69.0236V5.425H68.1416C67.885 5.425 67.7076 5.467 67.6096 5.551C67.5163 5.635 67.4696 5.74 67.4696 5.866C67.4696 6.006 67.5233 6.118 67.6306 6.202C67.7426 6.28133 67.8943 6.321 68.0856 6.321C68.2676 6.321 68.431 6.279 68.5756 6.195C68.7203 6.10633 68.8253 5.978 68.8906 5.81L69.0586 6.314C68.9793 6.55667 68.8346 6.741 68.6246 6.867C68.4146 6.993 68.144 7.056 67.8126 7.056ZM75.4603 7L74.4593 5.215L75.3413 4.69L76.7553 7H75.4603ZM73.8153 5.572V4.697H75.1243V5.572H73.8153ZM75.4533 5.243L74.4243 5.131L75.5093 3.234H76.6643L75.4533 5.243ZM71.7363 7H70.4483L71.8553 4.69L72.7373 5.215L71.7363 7ZM74.1373 7H73.0593V3.234H74.1373V7ZM73.3813 5.572H72.0793V4.697H73.3813V5.572ZM71.7433 5.243L70.5323 3.234H71.6873L72.7653 5.131L71.7433 5.243ZM77.3229 7V3.234H78.4079V5.474L80.2419 3.234H81.2429V7H80.1579V4.76L78.3309 7H77.3229ZM83.0976 7V3.878L83.3426 4.13H81.8236V3.234H85.4566V4.13H83.9376L84.1826 3.878V7H83.0976ZM86.0387 7V3.234H87.1237V5.474L88.9577 3.234H89.9587V7H88.8737V4.76L87.0467 7H86.0387ZM92.9908 7V3.234H94.9158C95.3872 3.234 95.7558 3.32033 96.0218 3.493C96.2878 3.661 96.4208 3.899 96.4208 4.207C96.4208 4.515 96.2948 4.75767 96.0428 4.935C95.7955 5.10767 95.4665 5.194 95.0558 5.194L95.1678 4.942C95.6252 4.942 95.9658 5.026 96.1898 5.194C96.4185 5.362 96.5328 5.607 96.5328 5.929C96.5328 6.26033 96.4068 6.52167 96.1548 6.713C95.9028 6.90433 95.5178 7 94.9998 7H92.9908ZM93.9918 6.258H94.9088C95.1095 6.258 95.2588 6.22533 95.3568 6.16C95.4595 6.09 95.5108 5.985 95.5108 5.845C95.5108 5.70033 95.4642 5.59533 95.3708 5.53C95.2775 5.46 95.1305 5.425 94.9298 5.425H93.9918V6.258ZM93.9918 4.781H94.8178C95.0092 4.781 95.1515 4.746 95.2448 4.676C95.3428 4.606 95.3918 4.50567 95.3918 4.375C95.3918 4.23967 95.3428 4.13933 95.2448 4.074C95.1515 4.00867 95.0092 3.976 94.8178 3.976H93.9918V4.781Z" fill="white"/>
<path d="M39.899 33L46.199 19H48.759L55.079 33H52.359L46.939 20.38H47.979L42.579 33H39.899ZM42.799 29.76L43.499 27.72H51.059L51.759 29.76H42.799ZM62.5395 33.14C61.6728 33.14 60.8795 32.94 60.1595 32.54C59.4528 32.14 58.8862 31.54 58.4595 30.74C58.0462 29.9267 57.8395 28.9 57.8395 27.66C57.8395 26.4067 58.0395 25.38 58.4395 24.58C58.8528 23.78 59.4128 23.1867 60.1195 22.8C60.8262 22.4 61.6328 22.2 62.5395 22.2C63.5928 22.2 64.5195 22.4267 65.3195 22.88C66.1328 23.3333 66.7728 23.9667 67.2395 24.78C67.7195 25.5933 67.9595 26.5533 67.9595 27.66C67.9595 28.7667 67.7195 29.7333 67.2395 30.56C66.7728 31.3733 66.1328 32.0067 65.3195 32.46C64.5195 32.9133 63.5928 33.14 62.5395 33.14ZM56.6195 36.88V22.32H58.9995V24.84L58.9195 27.68L59.1195 30.52V36.88H56.6195ZM62.2595 31C62.8595 31 63.3928 30.8667 63.8595 30.6C64.3395 30.3333 64.7195 29.9467 64.9995 29.44C65.2795 28.9333 65.4195 28.34 65.4195 27.66C65.4195 26.9667 65.2795 26.3733 64.9995 25.88C64.7195 25.3733 64.3395 24.9867 63.8595 24.72C63.3928 24.4533 62.8595 24.32 62.2595 24.32C61.6595 24.32 61.1195 24.4533 60.6395 24.72C60.1595 24.9867 59.7795 25.3733 59.4995 25.88C59.2195 26.3733 59.0795 26.9667 59.0795 27.66C59.0795 28.34 59.2195 28.9333 59.4995 29.44C59.7795 29.9467 60.1595 30.3333 60.6395 30.6C61.1195 30.8667 61.6595 31 62.2595 31ZM76.2504 33.14C75.3838 33.14 74.5904 32.94 73.8704 32.54C73.1638 32.14 72.5971 31.54 72.1704 30.74C71.7571 29.9267 71.5504 28.9 71.5504 27.66C71.5504 26.4067 71.7504 25.38 72.1504 24.58C72.5638 23.78 73.1238 23.1867 73.8304 22.8C74.5371 22.4 75.3438 22.2 76.2504 22.2C77.3038 22.2 78.2304 22.4267 79.0304 22.88C79.8438 23.3333 80.4838 23.9667 80.9504 24.78C81.4304 25.5933 81.6704 26.5533 81.6704 27.66C81.6704 28.7667 81.4304 29.7333 80.9504 30.56C80.4838 31.3733 79.8438 32.0067 79.0304 32.46C78.2304 32.9133 77.3038 33.14 76.2504 33.14ZM70.3304 36.88V22.32H72.7104V24.84L72.6304 27.68L72.8304 30.52V36.88H70.3304ZM75.9704 31C76.5704 31 77.1038 30.8667 77.5704 30.6C78.0504 30.3333 78.4304 29.9467 78.7104 29.44C78.9904 28.9333 79.1304 28.34 79.1304 27.66C79.1304 26.9667 78.9904 26.3733 78.7104 25.88C78.4304 25.3733 78.0504 24.9867 77.5704 24.72C77.1038 24.4533 76.5704 24.32 75.9704 24.32C75.3704 24.32 74.8304 24.4533 74.3504 24.72C73.8704 24.9867 73.4904 25.3733 73.2104 25.88C72.9304 26.3733 72.7904 26.9667 72.7904 27.66C72.7904 28.34 72.9304 28.9333 73.2104 29.44C73.4904 29.9467 73.8704 30.3333 74.3504 30.6C74.8304 30.8667 75.3704 31 75.9704 31ZM94.1487 33.2C93.0554 33.2 92.0087 33.0467 91.0087 32.74C90.0087 32.42 89.2154 32.0133 88.6287 31.52L89.5287 29.5C90.0887 29.94 90.782 30.3067 91.6087 30.6C92.4354 30.8933 93.282 31.04 94.1487 31.04C94.882 31.04 95.4754 30.96 95.9287 30.8C96.382 30.64 96.7154 30.4267 96.9287 30.16C97.142 29.88 97.2487 29.5667 97.2487 29.22C97.2487 28.7933 97.0954 28.4533 96.7887 28.2C96.482 27.9333 96.082 27.7267 95.5887 27.58C95.1087 27.42 94.5687 27.2733 93.9687 27.14C93.382 27.0067 92.7887 26.8533 92.1887 26.68C91.602 26.4933 91.062 26.26 90.5687 25.98C90.0887 25.6867 89.6954 25.3 89.3887 24.82C89.082 24.34 88.9287 23.7267 88.9287 22.98C88.9287 22.22 89.1287 21.5267 89.5287 20.9C89.942 20.26 90.562 19.7533 91.3887 19.38C92.2287 18.9933 93.2887 18.8 94.5687 18.8C95.4087 18.8 96.242 18.9067 97.0687 19.12C97.8954 19.3333 98.6154 19.64 99.2287 20.04L98.4087 22.06C97.782 21.6867 97.1354 21.4133 96.4687 21.24C95.802 21.0533 95.162 20.96 94.5487 20.96C93.8287 20.96 93.242 21.0467 92.7887 21.22C92.3487 21.3933 92.022 21.62 91.8087 21.9C91.6087 22.18 91.5087 22.5 91.5087 22.86C91.5087 23.2867 91.6554 23.6333 91.9487 23.9C92.2554 24.1533 92.6487 24.3533 93.1287 24.5C93.622 24.6467 94.1687 24.7933 94.7687 24.94C95.3687 25.0733 95.962 25.2267 96.5487 25.4C97.1487 25.5733 97.6887 25.8 98.1687 26.08C98.662 26.36 99.0554 26.74 99.3487 27.22C99.6554 27.7 99.8087 28.3067 99.8087 29.04C99.8087 29.7867 99.602 30.48 99.1887 31.12C98.7887 31.7467 98.1687 32.2533 97.3287 32.64C96.4887 33.0133 95.4287 33.2 94.1487 33.2ZM106.167 33.14C104.994 33.14 104.087 32.84 103.447 32.24C102.807 31.6267 102.487 30.7267 102.487 29.54V19.96H104.987V29.48C104.987 29.9867 105.114 30.38 105.367 30.66C105.634 30.94 106 31.08 106.467 31.08C107.027 31.08 107.494 30.9333 107.867 30.64L108.567 32.42C108.274 32.66 107.914 32.84 107.487 32.96C107.06 33.08 106.62 33.14 106.167 33.14ZM100.727 24.4V22.4H107.847V24.4H100.727ZM115.072 33.14C113.979 33.14 113.005 32.9067 112.152 32.44C111.299 31.96 110.625 31.3067 110.132 30.48C109.639 29.6533 109.392 28.7133 109.392 27.66C109.392 26.5933 109.639 25.6533 110.132 24.84C110.625 24.0133 111.299 23.3667 112.152 22.9C113.005 22.4333 113.979 22.2 115.072 22.2C116.179 22.2 117.159 22.4333 118.012 22.9C118.879 23.3667 119.552 24.0067 120.032 24.82C120.525 25.6333 120.772 26.58 120.772 27.66C120.772 28.7133 120.525 29.6533 120.032 30.48C119.552 31.3067 118.879 31.96 118.012 32.44C117.159 32.9067 116.179 33.14 115.072 33.14ZM115.072 31C115.685 31 116.232 30.8667 116.712 30.6C117.192 30.3333 117.565 29.9467 117.832 29.44C118.112 28.9333 118.252 28.34 118.252 27.66C118.252 26.9667 118.112 26.3733 117.832 25.88C117.565 25.3733 117.192 24.9867 116.712 24.72C116.232 24.4533 115.692 24.32 115.092 24.32C114.479 24.32 113.932 24.4533 113.452 24.72C112.985 24.9867 112.612 25.3733 112.332 25.88C112.052 26.3733 111.912 26.9667 111.912 27.66C111.912 28.34 112.052 28.9333 112.332 29.44C112.612 29.9467 112.985 30.3333 113.452 30.6C113.932 30.8667 114.472 31 115.072 31ZM123.162 33V22.32H125.542V25.26L125.262 24.4C125.582 23.68 126.082 23.1333 126.762 22.76C127.456 22.3867 128.316 22.2 129.342 22.2V24.58C129.236 24.5533 129.136 24.54 129.042 24.54C128.949 24.5267 128.856 24.52 128.762 24.52C127.816 24.52 127.062 24.8 126.502 25.36C125.942 25.9067 125.662 26.7267 125.662 27.82V33H123.162ZM136.386 33.14C135.199 33.14 134.159 32.9067 133.266 32.44C132.386 31.96 131.699 31.3067 131.206 30.48C130.726 29.6533 130.486 28.7133 130.486 27.66C130.486 26.5933 130.719 25.6533 131.186 24.84C131.666 24.0133 132.319 23.3667 133.146 22.9C133.986 22.4333 134.939 22.2 136.006 22.2C137.046 22.2 137.972 22.4267 138.786 22.88C139.599 23.3333 140.239 23.9733 140.706 24.8C141.172 25.6267 141.406 26.6 141.406 27.72C141.406 27.8267 141.399 27.9467 141.386 28.08C141.386 28.2133 141.379 28.34 141.366 28.46H132.466V26.8H140.046L139.066 27.32C139.079 26.7067 138.952 26.1667 138.686 25.7C138.419 25.2333 138.052 24.8667 137.586 24.6C137.132 24.3333 136.606 24.2 136.006 24.2C135.392 24.2 134.852 24.3333 134.386 24.6C133.932 24.8667 133.572 25.24 133.306 25.72C133.052 26.1867 132.926 26.74 132.926 27.38V27.78C132.926 28.42 133.072 28.9867 133.366 29.48C133.659 29.9733 134.072 30.3533 134.606 30.62C135.139 30.8867 135.752 31.02 136.446 31.02C137.046 31.02 137.586 30.9267 138.066 30.74C138.546 30.5533 138.972 30.26 139.346 29.86L140.686 31.4C140.206 31.96 139.599 32.3933 138.866 32.7C138.146 32.9933 137.319 33.14 136.386 33.14Z" fill="white"/>
</svg>
