<svg width="143" height="36" viewBox="0 0 143 36" fill="none" xmlns="http://www.w3.org/2000/svg">
<path d="M11.5603 16.7207L0 28.7466C0.129788 29.2034 0.363056 29.6247 0.681973 29.9783C1.00089 30.3319 1.39701 30.6084 1.84006 30.7867C2.2831 30.965 2.76134 31.0404 3.23821 31.007C3.71509 30.9737 4.17797 30.8325 4.59148 30.5944L17.5994 23.2385L11.5603 16.7207Z" fill="#EA4335"/>
<path d="M22.4704 14.9844L17.1683 11.9561L11.2002 17.179L17.1924 23.0736L22.4542 20.0777C22.9204 19.8343 23.3108 19.4683 23.5833 19.0194C23.8557 18.5705 23.9998 18.0557 23.9998 17.531C23.9998 17.0063 23.8557 16.4916 23.5833 16.0427C23.3108 15.5937 22.9204 15.2277 22.4542 14.9844H22.4704Z" fill="#FBBC04"/>
<path d="M0.103005 6.39648C0.0334334 6.64647 -0.0012023 6.90443 3.18516e-05 7.16341V27.865C0.000846946 28.1239 0.0353526 28.3815 0.103005 28.6317L11.9996 17.2145L0.103005 6.39648Z" fill="#4285F4"/>
<path d="M11.6297 17.5146L17.5994 11.735L4.62733 4.44527C4.13929 4.16479 3.58417 4.01621 3.01853 4.01465C2.33564 4.0135 1.67109 4.23135 1.12614 4.63503C0.58119 5.0387 0.185723 5.60606 0 6.25064L11.6297 17.5146Z" fill="#34A853"/>
<path d="M35.6748 6.566L36.0248 5.754C36.2348 5.88 36.4588 5.978 36.6968 6.048C36.9395 6.11333 37.1752 6.15067 37.4038 6.16C37.6372 6.16467 37.8472 6.14133 38.0338 6.09C38.2252 6.03867 38.3768 5.96167 38.4888 5.859C38.6055 5.75633 38.6638 5.62567 38.6638 5.467C38.6638 5.28033 38.5868 5.14267 38.4328 5.054C38.2788 4.96067 38.0735 4.914 37.8168 4.914H36.6198V4.06H37.7328C37.9615 4.06 38.1388 4.01333 38.2648 3.92C38.3955 3.82667 38.4608 3.69833 38.4608 3.535C38.4608 3.395 38.4142 3.283 38.3208 3.199C38.2275 3.11033 38.0992 3.045 37.9358 3.003C37.7772 2.961 37.5975 2.94233 37.3968 2.947C37.1962 2.95167 36.9885 2.98433 36.7738 3.045C36.5592 3.10567 36.3538 3.18967 36.1578 3.297L35.8148 2.422C36.1322 2.25867 36.4658 2.14667 36.8158 2.086C37.1705 2.02067 37.5112 2.00433 37.8378 2.037C38.1692 2.065 38.4678 2.13967 38.7338 2.261C38.9998 2.37767 39.2122 2.53167 39.3708 2.723C39.5295 2.91433 39.6088 3.14067 39.6088 3.402C39.6088 3.63533 39.5482 3.843 39.4268 4.025C39.3055 4.207 39.1352 4.347 38.9158 4.445C38.7012 4.543 38.4538 4.592 38.1738 4.592L38.2018 4.34C38.5285 4.34 38.8108 4.396 39.0488 4.508C39.2915 4.61533 39.4782 4.767 39.6088 4.963C39.7442 5.15433 39.8118 5.376 39.8118 5.628C39.8118 5.86133 39.7488 6.07133 39.6228 6.258C39.5015 6.44 39.3335 6.594 39.1188 6.72C38.9042 6.846 38.6592 6.93933 38.3838 7C38.1085 7.06067 37.8145 7.08633 37.5018 7.077C37.1938 7.06767 36.8835 7.02333 36.5708 6.944C36.2582 6.86 35.9595 6.734 35.6748 6.566ZM42.8796 7V6.265L42.8096 6.104V4.788C42.8096 4.55467 42.7373 4.37267 42.5926 4.242C42.4526 4.11133 42.2356 4.046 41.9416 4.046C41.7409 4.046 41.5426 4.07867 41.3466 4.144C41.1553 4.20467 40.9919 4.28867 40.8566 4.396L40.4646 3.633C40.6699 3.48833 40.9173 3.37633 41.2066 3.297C41.4959 3.21767 41.7899 3.178 42.0886 3.178C42.6626 3.178 43.1083 3.31333 43.4256 3.584C43.7429 3.85467 43.9016 4.277 43.9016 4.851V7H42.8796ZM41.7316 7.056C41.4376 7.056 41.1856 7.007 40.9756 6.909C40.7656 6.80633 40.6046 6.66867 40.4926 6.496C40.3806 6.32333 40.3246 6.12967 40.3246 5.915C40.3246 5.691 40.3783 5.495 40.4856 5.327C40.5976 5.159 40.7726 5.02833 41.0106 4.935C41.2486 4.837 41.5589 4.788 41.9416 4.788H42.9426V5.425H42.0606C41.8039 5.425 41.6266 5.467 41.5286 5.551C41.4353 5.635 41.3886 5.74 41.3886 5.866C41.3886 6.006 41.4423 6.118 41.5496 6.202C41.6616 6.28133 41.8133 6.321 42.0046 6.321C42.1866 6.321 42.3499 6.279 42.4946 6.195C42.6393 6.10633 42.7443 5.978 42.8096 5.81L42.9776 6.314C42.8983 6.55667 42.7536 6.741 42.5436 6.867C42.3336 6.993 42.0629 7.056 41.7316 7.056ZM44.8502 7V3.234H46.7752C47.2465 3.234 47.6152 3.32033 47.8812 3.493C48.1472 3.661 48.2802 3.899 48.2802 4.207C48.2802 4.515 48.1542 4.75767 47.9022 4.935C47.6549 5.10767 47.3259 5.194 46.9152 5.194L47.0272 4.942C47.4845 4.942 47.8252 5.026 48.0492 5.194C48.2779 5.362 48.3922 5.607 48.3922 5.929C48.3922 6.26033 48.2662 6.52167 48.0142 6.713C47.7622 6.90433 47.3772 7 46.8592 7H44.8502ZM45.8512 6.258H46.7682C46.9689 6.258 47.1182 6.22533 47.2162 6.16C47.3189 6.09 47.3702 5.985 47.3702 5.845C47.3702 5.70033 47.3235 5.59533 47.2302 5.53C47.1369 5.46 46.9899 5.425 46.7892 5.425H45.8512V6.258ZM45.8512 4.781H46.6772C46.8685 4.781 47.0109 4.746 47.1042 4.676C47.2022 4.606 47.2512 4.50567 47.2512 4.375C47.2512 4.23967 47.2022 4.13933 47.1042 4.074C47.0109 4.00867 46.8685 3.976 46.6772 3.976H45.8512V4.781ZM51.4587 7V6.265L51.3887 6.104V4.788C51.3887 4.55467 51.3164 4.37267 51.1717 4.242C51.0317 4.11133 50.8147 4.046 50.5207 4.046C50.32 4.046 50.1217 4.07867 49.9257 4.144C49.7344 4.20467 49.571 4.28867 49.4357 4.396L49.0437 3.633C49.249 3.48833 49.4964 3.37633 49.7857 3.297C50.075 3.21767 50.369 3.178 50.6677 3.178C51.2417 3.178 51.6874 3.31333 52.0047 3.584C52.322 3.85467 52.4807 4.277 52.4807 4.851V7H51.4587ZM50.3107 7.056C50.0167 7.056 49.7647 7.007 49.5547 6.909C49.3447 6.80633 49.1837 6.66867 49.0717 6.496C48.9597 6.32333 48.9037 6.12967 48.9037 5.915C48.9037 5.691 48.9574 5.495 49.0647 5.327C49.1767 5.159 49.3517 5.02833 49.5897 4.935C49.8277 4.837 50.138 4.788 50.5207 4.788H51.5217V5.425H50.6397C50.383 5.425 50.2057 5.467 50.1077 5.551C50.0144 5.635 49.9677 5.74 49.9677 5.866C49.9677 6.006 50.0214 6.118 50.1287 6.202C50.2407 6.28133 50.3924 6.321 50.5837 6.321C50.7657 6.321 50.929 6.279 51.0737 6.195C51.2184 6.10633 51.3234 5.978 51.3887 5.81L51.5567 6.314C51.4774 6.55667 51.3327 6.741 51.1227 6.867C50.9127 6.993 50.642 7.056 50.3107 7.056ZM53.4293 7V3.234H54.5143V4.704H56.1523V3.234H57.2443V7H56.1523V5.593H54.5143V7H53.4293ZM59.0946 7V3.878L59.3396 4.13H57.8206V3.234H61.4536V4.13H59.9346L60.1796 3.878V7H59.0946ZM64.2897 7V6.265L64.2197 6.104V4.788C64.2197 4.55467 64.1474 4.37267 64.0027 4.242C63.8627 4.11133 63.6457 4.046 63.3517 4.046C63.1511 4.046 62.9527 4.07867 62.7567 4.144C62.5654 4.20467 62.4021 4.28867 62.2667 4.396L61.8747 3.633C62.0801 3.48833 62.3274 3.37633 62.6167 3.297C62.9061 3.21767 63.2001 3.178 63.4987 3.178C64.0727 3.178 64.5184 3.31333 64.8357 3.584C65.1531 3.85467 65.3117 4.277 65.3117 4.851V7H64.2897ZM63.1417 7.056C62.8477 7.056 62.5957 7.007 62.3857 6.909C62.1757 6.80633 62.0147 6.66867 61.9027 6.496C61.7907 6.32333 61.7347 6.12967 61.7347 5.915C61.7347 5.691 61.7884 5.495 61.8957 5.327C62.0077 5.159 62.1827 5.02833 62.4207 4.935C62.6587 4.837 62.9691 4.788 63.3517 4.788H64.3527V5.425H63.4707C63.2141 5.425 63.0367 5.467 62.9387 5.551C62.8454 5.635 62.7987 5.74 62.7987 5.866C62.7987 6.006 62.8524 6.118 62.9597 6.202C63.0717 6.28133 63.2234 6.321 63.4147 6.321C63.5967 6.321 63.7601 6.279 63.9047 6.195C64.0494 6.10633 64.1544 5.978 64.2197 5.81L64.3877 6.314C64.3084 6.55667 64.1637 6.741 63.9537 6.867C63.7437 6.993 63.4731 7.056 63.1417 7.056ZM70.7894 7L69.7884 5.215L70.6704 4.69L72.0844 7H70.7894ZM69.1444 5.572V4.697H70.4534V5.572H69.1444ZM70.7824 5.243L69.7534 5.131L70.8384 3.234H71.9934L70.7824 5.243ZM67.0654 7H65.7774L67.1844 4.69L68.0664 5.215L67.0654 7ZM69.4664 7H68.3884V3.234H69.4664V7ZM68.7104 5.572H67.4084V4.697H68.7104V5.572ZM67.0724 5.243L65.8614 3.234H67.0164L68.0944 5.131L67.0724 5.243ZM72.652 7V3.234H73.737V5.474L75.571 3.234H76.572V7H75.487V4.76L73.66 7H72.652ZM78.4267 7V3.878L78.6717 4.13H77.1527V3.234H80.7857V4.13H79.2667L79.5117 3.878V7H78.4267ZM81.3678 7V3.234H82.4528V5.474L84.2868 3.234H85.2878V7H84.2028V4.76L82.3758 7H81.3678ZM88.3199 7V3.234H90.2449C90.7163 3.234 91.0849 3.32033 91.3509 3.493C91.6169 3.661 91.7499 3.899 91.7499 4.207C91.7499 4.515 91.6239 4.75767 91.3719 4.935C91.1246 5.10767 90.7956 5.194 90.3849 5.194L90.4969 4.942C90.9543 4.942 91.2949 5.026 91.5189 5.194C91.7476 5.362 91.8619 5.607 91.8619 5.929C91.8619 6.26033 91.7359 6.52167 91.4839 6.713C91.2319 6.90433 90.8469 7 90.3289 7H88.3199ZM89.3209 6.258H90.2379C90.4386 6.258 90.5879 6.22533 90.6859 6.16C90.7886 6.09 90.8399 5.985 90.8399 5.845C90.8399 5.70033 90.7933 5.59533 90.6999 5.53C90.6066 5.46 90.4596 5.425 90.2589 5.425H89.3209V6.258ZM89.3209 4.781H90.1469C90.3383 4.781 90.4806 4.746 90.5739 4.676C90.6719 4.606 90.7209 4.50567 90.7209 4.375C90.7209 4.23967 90.6719 4.13933 90.5739 4.074C90.4806 4.00867 90.3383 3.976 90.1469 3.976H89.3209V4.781Z" fill="white"/>
<path d="M140.41 20.0997L137.769 26.7934H137.69L134.934 20.0997H132.443L136.572 29.457L134.213 34.6615H136.634L142.999 20.0997H140.41ZM121.746 14.5449H119.44V29.9827H121.746V14.5449ZM113.066 14.5449H107.52V29.9827H109.844V24.1388H113.074C113.726 24.161 114.375 24.0542 114.985 23.8245C115.594 23.5949 116.152 23.2471 116.626 22.8012C117.099 22.3553 117.479 21.8203 117.743 21.2272C118.007 20.6341 118.149 19.9947 118.163 19.3462C118.15 18.6965 118.006 18.0559 117.742 17.4617C117.478 16.8676 117.097 16.3316 116.623 15.8849C116.149 15.4381 115.59 15.0896 114.98 14.8596C114.369 14.6295 113.718 14.5227 113.066 14.5449ZM113.127 21.983H109.844V16.7263H113.136C113.837 16.7263 114.508 17.0032 115.004 17.4961C115.499 17.9891 115.777 18.6576 115.777 19.3548C115.777 20.0519 115.499 20.7205 115.004 21.2134C114.508 21.7064 113.837 21.9833 113.136 21.9833L113.127 21.983ZM127.434 19.7664C126.589 19.7181 125.748 19.9162 125.015 20.3363C124.281 20.7565 123.687 21.3805 123.304 22.1319L125.365 23.0081C125.569 22.6366 125.877 22.3326 126.253 22.1333C126.628 21.9341 127.054 21.8484 127.478 21.8866C127.769 21.8577 128.062 21.8862 128.342 21.9706C128.622 22.055 128.882 22.1936 129.108 22.3784C129.334 22.5632 129.521 22.7907 129.658 23.0476C129.795 23.3045 129.88 23.5859 129.907 23.8755V24.0333C129.169 23.6359 128.343 23.4281 127.504 23.4286C125.294 23.4286 123.04 24.6379 123.04 26.9334C123.04 29.0012 124.845 30.3329 126.888 30.3329C127.469 30.3696 128.049 30.2489 128.567 29.9835C129.085 29.7182 129.521 29.3181 129.828 28.8259H129.916V30.0174H132.17V24.0774C132.17 21.335 130.11 19.8105 127.451 19.8105L127.434 19.7664ZM127.161 28.2302C126.404 28.2302 125.347 27.8447 125.347 26.9159C125.347 25.7244 126.659 25.2689 127.803 25.2689C128.542 25.2489 129.271 25.4275 129.916 25.7855C129.831 26.4555 129.505 27.0723 128.999 27.5217C128.492 27.9711 127.839 28.2228 127.161 28.2302ZM43.683 30.3155C39.1241 30.3305 35.4004 26.6948 35.3281 22.1583C35.4007 17.6217 39.1241 13.9861 43.683 14.0011C44.7269 13.9838 45.7637 14.1741 46.7328 14.5608C47.7018 14.9475 48.5835 15.5228 49.3262 16.253L47.7327 17.8214C46.6519 16.7674 45.1962 16.1815 43.683 16.1916C40.3914 16.1916 37.7229 18.8473 37.7229 22.1233C37.7229 25.3992 40.3914 28.0549 43.683 28.0549C44.4523 28.0863 45.2197 27.9567 45.9355 27.6744C46.6512 27.3922 47.2996 26.9635 47.8384 26.4163C48.5549 25.6475 48.9866 24.6586 49.0622 23.6128H43.683V21.4489H51.2543C51.3369 21.9086 51.3752 22.3749 51.3687 22.8421C51.4448 24.7816 50.7451 26.6721 49.423 28.0991C48.6766 28.8494 47.7796 29.4346 46.7905 29.8165C45.8015 30.1984 44.7426 30.3684 43.683 30.3155ZM63.0778 25.0584C63.107 25.7594 62.9934 26.459 62.7439 27.1152C62.4945 27.7713 62.1143 28.3706 61.6262 28.8768C61.1381 29.383 60.5523 29.7858 59.9038 30.061C59.2553 30.3361 58.5577 30.478 57.8527 30.478C57.1478 30.478 56.4501 30.3361 55.8017 30.061C55.1532 29.7858 54.5673 29.383 54.0793 28.8768C53.5912 28.3706 53.211 27.7713 52.9615 27.1152C52.7121 26.459 52.5985 25.7594 52.6276 25.0584C52.5985 24.3574 52.7121 23.6578 52.9615 23.0017C53.211 22.3455 53.5912 21.7463 54.0793 21.24C54.5673 20.7338 55.1532 20.331 55.8017 20.0558C56.4501 19.7807 57.1478 19.6388 57.8527 19.6388C58.5577 19.6388 59.2553 19.7807 59.9038 20.0558C60.5523 20.331 61.1381 20.7338 61.6262 21.24C62.1143 21.7463 62.4945 22.3455 62.7439 23.0017C62.9934 23.6578 63.107 24.3574 63.0778 25.0584ZM60.7889 25.0584C60.8276 24.6515 60.7804 24.241 60.6505 23.8532C60.5205 23.4654 60.3106 23.109 60.0342 22.8066C59.7578 22.5043 59.421 22.2627 59.0453 22.0974C58.6697 21.9321 58.2635 21.8468 57.8527 21.8468C57.442 21.8468 57.0358 21.9321 56.6602 22.0974C56.2845 22.2627 55.9477 22.5043 55.6713 22.8066C55.3949 23.109 55.185 23.4654 55.055 23.8532C54.925 24.241 54.8779 24.6515 54.9166 25.0584C54.8779 25.4654 54.925 25.8759 55.055 26.2636C55.185 26.6514 55.3949 27.0079 55.6713 27.3102C55.9477 27.6126 56.2845 27.8541 56.6602 28.0194C57.0358 28.1847 57.442 28.2701 57.8527 28.2701C58.2635 28.2701 58.6697 28.1847 59.0453 28.0194C59.421 27.8541 59.7578 27.6126 60.0342 27.3102C60.3106 27.0079 60.5205 26.6514 60.6505 26.2636C60.7804 25.8759 60.8276 25.4654 60.7889 25.0584ZM74.7869 25.0584C74.7869 27.928 72.4494 30.2541 69.5663 30.2541C66.6829 30.2541 64.3454 27.928 64.3454 25.0584C64.3454 22.1888 66.6829 19.8628 69.5663 19.8628C72.4494 19.8628 74.7869 22.1888 74.7869 25.0584ZM72.5069 25.0584C72.5456 24.6515 72.4984 24.241 72.3685 23.8532C72.2385 23.4654 72.0286 23.109 71.7522 22.8066C71.4758 22.5043 71.139 22.2627 70.7633 22.0974C70.3877 21.9321 69.9815 21.8468 69.5708 21.8468C69.16 21.8468 68.7538 21.9321 68.3782 22.0974C68.0025 22.2627 67.6657 22.5043 67.3893 22.8066C67.1129 23.109 66.903 23.4654 66.773 23.8532C66.6431 24.241 66.5959 24.6515 66.6346 25.0584C66.5957 25.4655 66.6427 25.8761 66.7725 26.264C66.9024 26.652 67.1123 27.0086 67.3887 27.3111C67.6651 27.6136 68.002 27.8553 68.3777 28.0207C68.7535 28.1861 69.1598 28.2715 69.5706 28.2715C69.9815 28.2715 70.3878 28.1861 70.7635 28.0207C71.1393 27.8553 71.4762 27.6136 71.7526 27.3111C72.029 27.0086 72.2389 26.652 72.3687 26.264C72.4986 25.8761 72.5458 25.4655 72.5069 25.0584ZM86.2139 20.1258V29.5619C86.2139 33.4345 83.8984 35.0292 81.1693 35.0292C80.169 35.0376 79.1885 34.7508 78.3518 34.205C77.515 33.6592 76.8595 32.879 76.4681 31.9627L78.4665 31.0865C78.6738 31.6214 79.0348 32.0837 79.5046 32.4157C79.9743 32.7476 80.5319 32.9344 81.1077 32.9529C82.8686 32.9529 83.9425 31.8752 83.9425 29.8686V29.1151H83.8546C83.5093 29.4986 83.0855 29.8041 82.6117 30.0111C82.1379 30.2182 81.6251 30.3219 81.1077 30.3155C78.1902 30.3155 75.8254 27.9619 75.8254 25.0584C75.8254 22.1549 78.1902 19.8014 81.1077 19.8014C81.6285 19.7899 82.1458 19.8887 82.6254 20.0911C83.105 20.2934 83.536 20.5949 83.8898 20.9754H83.9777V20.0994H86.2139V20.1258ZM84.1627 25.0848C84.195 24.6882 84.147 24.2893 84.0214 23.9116C83.8959 23.5338 83.6953 23.1851 83.4317 22.886C83.1681 22.5869 82.8468 22.3435 82.4869 22.1704C82.127 21.9972 81.7358 21.8978 81.3365 21.878C80.9295 21.8914 80.5292 21.9855 80.159 22.1547C79.7889 22.3238 79.4564 22.5648 79.181 22.8634C78.9055 23.162 78.6927 23.5122 78.5549 23.8936C78.4171 24.2751 78.357 24.68 78.3783 25.0848C78.3595 25.4868 78.4215 25.8886 78.5607 26.2664C78.6999 26.6443 78.9136 26.9907 79.1891 27.2853C79.4647 27.5799 79.7965 27.8168 80.1653 27.9821C80.534 28.1473 80.9322 28.2376 81.3365 28.2477C81.7334 28.2324 82.1231 28.1375 82.4822 27.9687C82.8413 27.7999 83.1625 27.5606 83.4264 27.2652C83.6903 26.9698 83.8916 26.6245 84.0181 26.2498C84.1446 25.8751 84.1938 25.4789 84.1627 25.0848ZM90.29 14.5618V29.9913H87.9659V14.5621L90.29 14.5618ZM99.4459 26.7934L101.26 27.9849C100.775 28.704 100.12 29.2929 99.3523 29.6994C98.5844 30.1059 97.7275 30.3174 96.8578 30.3152C96.1659 30.325 95.4791 30.195 94.8392 29.9331C94.1992 29.6712 93.6193 29.2827 93.1345 28.7913C92.6498 28.2999 92.2702 27.7157 92.0189 27.074C91.7676 26.4324 91.6497 25.7467 91.6723 25.0584C91.4588 22.6088 93.1263 20.3896 95.5481 19.9008C97.9693 19.412 100.374 20.8093 101.136 23.1484L101.374 23.753L94.331 26.6529C94.5504 27.1438 94.9126 27.5581 95.3707 27.8424C95.8289 28.1266 96.3621 28.2678 96.9016 28.2477C97.4148 28.2397 97.9175 28.102 98.3626 27.8476C98.8076 27.5931 99.1804 27.2303 99.4459 26.7932M93.8909 24.9004L98.6274 22.9554C98.444 22.5982 98.1595 22.3025 97.8089 22.1046C97.4584 21.9068 97.0572 21.8157 96.6552 21.8425C96.2708 21.8592 95.8936 21.952 95.5456 22.1155C95.1977 22.2789 94.8859 22.5097 94.6286 22.7944C94.3712 23.0791 94.1735 23.4119 94.0468 23.7735C93.9202 24.1351 93.8672 24.5182 93.8909 24.9004Z" fill="white"/>
</svg>
