<svg width="30" height="23" viewBox="0 0 30 23" fill="none" xmlns="http://www.w3.org/2000/svg">
<g clip-path="url(#clip0_689_50618)">
<path d="M5.3791 22.8861V21.3638C5.3791 20.7801 5.02381 20.3996 4.41483 20.3996C4.1104 20.3996 3.78054 20.5011 3.55216 20.831C3.37463 20.5518 3.12094 20.3996 2.74034 20.3996C2.48653 20.3996 2.23295 20.4757 2.02988 20.7548V20.4504H1.49707V22.8861H2.02988V21.5413C2.02988 21.1101 2.25827 20.907 2.61355 20.907C2.96861 20.907 3.14637 21.1354 3.14637 21.5413V22.8861H3.67918V21.5413C3.67918 21.1101 3.93276 20.907 4.26262 20.907C4.6179 20.907 4.79543 21.1354 4.79543 21.5413V22.8861H5.3791ZM13.2697 20.4504H12.4072V19.7146H11.8743V20.4504H11.3923V20.9323H11.8742V22.0488C11.8742 22.607 12.1026 22.9368 12.7116 22.9368C12.94 22.9368 13.1936 22.8607 13.3713 22.7593L13.219 22.3025C13.0668 22.404 12.8892 22.4294 12.7623 22.4294C12.5086 22.4294 12.4072 22.2772 12.4072 22.0234V20.9323H13.2697V20.4504ZM17.786 20.3995C17.4816 20.3995 17.2787 20.5518 17.1517 20.7548V20.4504H16.6189V22.8861H17.1517V21.516C17.1517 21.1101 17.3293 20.8817 17.6591 20.8817C17.7606 20.8817 17.8875 20.9071 17.989 20.9324L18.1412 20.4251C18.0397 20.3996 17.8875 20.3995 17.786 20.3995ZM10.9609 20.6534C10.7071 20.4758 10.352 20.3997 9.97136 20.3997C9.36249 20.3997 8.95658 20.7042 8.95658 21.1862C8.95658 21.5923 9.26101 21.8205 9.79383 21.8967L10.0475 21.9221C10.3266 21.9728 10.4789 22.0489 10.4789 22.1758C10.4789 22.3534 10.2759 22.4803 9.92062 22.4803C9.56533 22.4803 9.28633 22.3534 9.10868 22.2266L8.85499 22.6325C9.13411 22.8354 9.51471 22.9369 9.89519 22.9369C10.6056 22.9369 11.0117 22.6072 11.0117 22.1504C11.0117 21.7191 10.6818 21.4907 10.1743 21.4146L9.92062 21.3892C9.69224 21.3638 9.51471 21.3132 9.51471 21.1609C9.51471 20.9833 9.69224 20.8818 9.97136 20.8818C10.2759 20.8818 10.5803 21.0086 10.7326 21.0848L10.9609 20.6534ZM25.1186 20.3997C24.8141 20.3997 24.6111 20.552 24.4842 20.7549V20.4505H23.9514V22.8862H24.4842V21.5161C24.4842 21.1102 24.6619 20.8818 24.9916 20.8818C25.0932 20.8818 25.2201 20.9072 25.3216 20.9326L25.4738 20.4252C25.3723 20.3997 25.2201 20.3997 25.1186 20.3997ZM18.3189 21.6683C18.3189 22.4041 18.8262 22.9369 19.6129 22.9369C19.968 22.9369 20.2217 22.8609 20.4754 22.6579L20.2217 22.2266C20.0188 22.3788 19.8158 22.4548 19.5874 22.4548C19.1561 22.4548 18.8517 22.1504 18.8517 21.6683C18.8517 21.2117 19.1561 20.9071 19.5874 20.8818C19.8158 20.8818 20.0188 20.9579 20.2217 21.1102L20.4754 20.6789C20.2217 20.4758 19.968 20.3997 19.6129 20.3997C18.8262 20.3997 18.3189 20.9326 18.3189 21.6683ZM23.2411 21.6683V20.4505H22.7083V20.7549C22.5306 20.5266 22.2769 20.3997 21.9471 20.3997C21.262 20.3997 20.7292 20.9326 20.7292 21.6683C20.7292 22.4041 21.262 22.9369 21.9471 22.9369C22.3022 22.9369 22.5561 22.8101 22.7083 22.5817V22.8862H23.2411V21.6683ZM21.2874 21.6683C21.2874 21.237 21.5665 20.8818 22.0231 20.8818C22.4545 20.8818 22.759 21.2117 22.759 21.6683C22.759 22.0997 22.4545 22.4548 22.0231 22.4548C21.5665 22.4294 21.2874 22.0997 21.2874 21.6683ZM14.919 20.3997C14.2086 20.3997 13.7011 20.9071 13.7011 21.6683C13.7011 22.4295 14.2084 22.9369 14.9443 22.9369C15.2995 22.9369 15.6548 22.8354 15.9339 22.6072L15.6801 22.2266C15.4771 22.3788 15.2234 22.4803 14.9698 22.4803C14.6399 22.4803 14.31 22.328 14.2339 21.8966H16.0354V21.6938C16.0608 20.9071 15.6042 20.3997 14.919 20.3997ZM14.9189 20.8564C15.2486 20.8564 15.4771 21.0595 15.5278 21.4401H14.2592C14.3099 21.1102 14.5383 20.8564 14.9189 20.8564ZM28.1378 21.6683V19.4863H27.605V20.7549C27.4273 20.5266 27.1736 20.3997 26.8438 20.3997C26.1587 20.3997 25.6259 20.9326 25.6259 21.6683C25.6259 22.4041 26.1587 22.9369 26.8438 22.9369C27.1991 22.9369 27.4527 22.8101 27.605 22.5817V22.8862H28.1378V21.6683ZM26.1842 21.6683C26.1842 21.237 26.4632 20.8818 26.9199 20.8818C27.3513 20.8818 27.6557 21.2117 27.6557 21.6683C27.6557 22.0997 27.3513 22.4548 26.9199 22.4548C26.4632 22.4294 26.1842 22.0997 26.1842 21.6683ZM8.3728 21.6683V20.4505H7.83998V20.7549C7.66234 20.5266 7.40865 20.3997 7.07879 20.3997C6.39376 20.3997 5.86094 20.9326 5.86094 21.6683C5.86094 22.4041 6.39376 22.9369 7.07879 22.9369C7.43407 22.9369 7.68777 22.8101 7.83998 22.5817V22.8862H8.3728V21.6683ZM6.39376 21.6683C6.39376 21.237 6.67288 20.8818 7.12953 20.8818C7.56086 20.8818 7.86541 21.2117 7.86541 21.6683C7.86541 22.0997 7.56086 22.4548 7.12953 22.4548C6.67288 22.4294 6.39376 22.0997 6.39376 21.6683Z" fill="white"/>
<path d="M10.7832 1.95312H18.7754V16.3138H10.7832V1.95312Z" fill="#FF5F00"/>
<path d="M11.2907 9.13401C11.2907 6.21624 12.6607 3.62822 14.7666 1.95361C13.219 0.735769 11.2654 0 9.13412 0C4.08487 0 0 4.08487 0 9.13401C0 14.1831 4.08487 18.268 9.13401 18.268C11.2653 18.268 13.2189 17.5322 14.7666 16.3143C12.6607 14.6651 11.2907 12.0518 11.2907 9.13401Z" fill="#EB001B"/>
<path d="M29.5586 9.13401C29.5586 14.183 25.4737 18.268 20.4246 18.268C18.2933 18.268 16.3397 17.5322 14.792 16.3143C16.9232 14.6398 18.268 12.0518 18.268 9.13401C18.268 6.21624 16.8978 3.62822 14.792 1.95361C16.3396 0.735769 18.2933 0 20.4246 0C25.4737 0 29.5586 4.1103 29.5586 9.13401Z" fill="#F79E1B"/>
</g>
<defs>
<clipPath id="clip0_689_50618">
<rect width="29.5879" height="23" fill="white"/>
</clipPath>
</defs>
</svg>
