<svg width="21" height="22" viewBox="0 0 21 22" fill="none" xmlns="http://www.w3.org/2000/svg">
<path d="M16.9458 2.70625L19.208 9.47188H20.2969V10.825H20.0643C19.9234 11.2267 19.726 11.5932 19.4723 11.9244C19.2186 12.2556 18.9226 12.5411 18.5843 12.7807C18.246 13.0203 17.8796 13.2035 17.4849 13.3304C17.0903 13.4573 16.6744 13.5242 16.2375 13.5312C15.8076 13.5312 15.3953 13.4678 15.0007 13.341C14.606 13.2141 14.2395 13.0309 13.9012 12.7913C13.563 12.5516 13.267 12.2662 13.0133 11.935C12.7595 11.6038 12.5587 11.2338 12.4107 10.825H12.1781V9.47188H13.267L15.5292 2.70625H10.825V17.6118C12.0019 17.6893 13.1154 17.9536 14.1655 18.4046C15.2156 18.8557 16.1776 19.4864 17.0515 20.2969H18.9438V21.65H1.35312V20.2969H3.24539C4.11223 19.4935 5.07069 18.8662 6.12078 18.4152C7.17086 17.9641 8.28789 17.6963 9.47188 17.6118V2.70625H4.76765L7.02991 9.47188H8.11875V10.825H7.88618C7.74523 11.2267 7.5479 11.5932 7.29419 11.9244C7.04048 12.2556 6.74448 12.5411 6.4062 12.7807C6.06792 13.0203 5.70145 13.2035 5.30679 13.3304C4.91213 13.4573 4.49632 13.5242 4.05937 13.5312C3.62948 13.5312 3.2172 13.4678 2.82253 13.341C2.42787 13.2141 2.0614 13.0309 1.72312 12.7913C1.38484 12.5516 1.08884 12.2662 0.835132 11.935C0.581421 11.6038 0.380566 11.2338 0.232568 10.825H0V9.47188H1.08884L3.3511 2.70625H0V1.35312H9.47188V0H10.825V1.35312H20.2969V2.70625H16.9458ZM4.05937 4.84165L2.51597 9.47188H5.60278L4.05937 4.84165ZM4.05937 12.1781C4.54565 12.1781 4.9967 12.0583 5.4125 11.8187C5.8283 11.5791 6.15954 11.2479 6.4062 10.825H1.71255C1.95921 11.2479 2.29045 11.5791 2.70625 11.8187C3.12205 12.0583 3.5731 12.1781 4.05937 12.1781ZM14.8421 20.2969C14.1373 19.8529 13.3868 19.5181 12.5904 19.2926C11.794 19.0671 10.98 18.9508 10.1484 18.9438C9.31683 18.9438 8.50284 19.0565 7.70647 19.282C6.9101 19.5076 6.15954 19.8458 5.45478 20.2969H14.8421ZM16.2375 4.84165L14.6941 9.47188H17.7809L16.2375 4.84165ZM16.2375 12.1781C16.7238 12.1781 17.1748 12.0583 17.5906 11.8187C18.0064 11.5791 18.3377 11.2479 18.5843 10.825H13.8907C14.1373 11.2479 14.4686 11.5791 14.8844 11.8187C15.3002 12.0583 15.7512 12.1781 16.2375 12.1781Z" fill="white"/>
</svg>
