<svg width="15" height="14" viewBox="0 0 15 14" fill="none" xmlns="http://www.w3.org/2000/svg">
<path d="M13.5 0H1.12502C0.826651 0 0.540503 0.118526 0.329524 0.329505C0.118546 0.540483 1.95886e-05 0.826631 1.95886e-05 1.125V12.375C-0.00125156 12.5894 0.0593677 12.7997 0.174606 12.9805C0.289844 13.1614 0.454807 13.3051 0.649707 13.3945C0.798641 13.4637 0.960815 13.4997 1.12502 13.5C1.38912 13.4994 1.64445 13.4052 1.84572 13.2342C1.84908 13.232 1.85215 13.2294 1.85486 13.2265L4.1133 11.25H13.5C13.7984 11.25 14.0845 11.1315 14.2955 10.9205C14.5065 10.7095 14.625 10.4234 14.625 10.125V1.125C14.625 0.826631 14.5065 0.540483 14.2955 0.329505C14.0845 0.118526 13.7984 0 13.5 0ZM13.5 10.125H4.1133C3.84838 10.1249 3.59191 10.2183 3.38908 10.3887L3.38064 10.3964L1.12502 12.375V1.125H13.5V10.125ZM6.46877 5.625C6.46877 5.45812 6.51825 5.29499 6.61097 5.15624C6.70368 5.01748 6.83546 4.90934 6.98963 4.84548C7.14381 4.78162 7.31346 4.76491 7.47713 4.79746C7.6408 4.83002 7.79114 4.91038 7.90914 5.02838C8.02714 5.14638 8.1075 5.29672 8.14006 5.46039C8.17261 5.62406 8.1559 5.79371 8.09204 5.94789C8.02818 6.10206 7.92004 6.23384 7.78128 6.32655C7.64253 6.41926 7.4794 6.46875 7.31252 6.46875C7.08874 6.46875 6.87413 6.37985 6.7159 6.22162C6.55766 6.06339 6.46877 5.84878 6.46877 5.625ZM3.37502 5.625C3.37502 5.45812 3.4245 5.29499 3.51722 5.15624C3.60993 5.01748 3.74171 4.90934 3.89588 4.84548C4.05006 4.78162 4.21971 4.76491 4.38338 4.79746C4.54705 4.83002 4.69739 4.91038 4.81539 5.02838C4.93339 5.14638 5.01375 5.29672 5.04631 5.46039C5.07886 5.62406 5.06215 5.79371 4.99829 5.94789C4.93443 6.10206 4.82629 6.23384 4.68753 6.32655C4.54878 6.41926 4.38565 6.46875 4.21877 6.46875C3.99499 6.46875 3.78038 6.37985 3.62215 6.22162C3.46391 6.06339 3.37502 5.84878 3.37502 5.625ZM9.56252 5.625C9.56252 5.45812 9.612 5.29499 9.70472 5.15624C9.79743 5.01748 9.92921 4.90934 10.0834 4.84548C10.2376 4.78162 10.4072 4.76491 10.5709 4.79746C10.7345 4.83002 10.8849 4.91038 11.0029 5.02838C11.1209 5.14638 11.2013 5.29672 11.2338 5.46039C11.2664 5.62406 11.2497 5.79371 11.1858 5.94789C11.1219 6.10206 11.0138 6.23384 10.875 6.32655C10.7363 6.41926 10.5731 6.46875 10.4063 6.46875C10.1825 6.46875 9.96788 6.37985 9.80965 6.22162C9.65141 6.06339 9.56252 5.84878 9.56252 5.625Z" fill="#141412" fill-opacity="0.5"/>
</svg>
