<svg width="21" height="21" viewBox="0 0 21 21" fill="none" xmlns="http://www.w3.org/2000/svg">
<path d="M7.33313 15.7835V11.8075C7.33313 11.4265 7.33312 11.2355 7.28912 11.0575C7.24977 10.8994 7.18492 10.7488 7.09713 10.6115C6.99713 10.4565 6.85913 10.3255 6.58213 10.0635L1.76613 5.5095C1.38098 5.14529 1.114 4.67388 0.999743 4.15626C0.885489 3.63863 0.929215 3.09864 1.12527 2.60614C1.32131 2.11365 1.66066 1.69133 2.09939 1.39384C2.53813 1.09634 3.05604 0.937375 3.58613 0.9375H16.7751C17.3058 0.937488 17.8244 1.09598 18.2644 1.39265C18.7045 1.68933 19.0459 2.11066 19.2448 2.60264C19.4438 3.09461 19.4913 3.63481 19.3813 4.15397C19.2712 4.67312 19.0086 5.14758 18.6271 5.5165L13.8621 10.1235C13.5921 10.3845 13.4571 10.5155 13.3611 10.6685C13.2756 10.8045 13.2124 10.9534 13.1741 11.1095C13.1301 11.2855 13.1301 11.4735 13.1301 11.8495V15.7845C13.1301 16.3265 13.1301 16.5975 13.0681 16.8415C12.9657 17.2418 12.7418 17.6006 12.4271 17.8685C12.2351 18.0315 11.9911 18.1505 11.5041 18.3885C10.3641 18.9455 9.79513 19.2235 9.33213 19.2235C8.95803 19.2232 8.59151 19.118 8.27421 18.9199C7.95691 18.7217 7.70154 18.4385 7.53713 18.1025C7.33313 17.6865 7.33313 17.0515 7.33313 15.7835Z" stroke="#141412" stroke-width="1.875" stroke-linecap="round" stroke-linejoin="round"/>
</svg>
