<svg width="20" height="20" viewBox="0 0 20 20" fill="none" xmlns="http://www.w3.org/2000/svg">
<g clip-path="url(#clip0_689_50663)">
<path d="M19.8009 5.99984C19.8009 5.99984 19.6059 4.62109 19.0046 4.01609C18.2434 3.21984 17.3909 3.21484 17.0009 3.16859C14.2046 2.96484 10.0046 2.96484 10.0046 2.96484H9.99711C9.99711 2.96484 5.79836 2.96484 3.00086 3.16859C2.60961 3.21609 1.75836 3.21984 0.997109 4.01609C0.395859 4.62109 0.204609 5.99984 0.204609 5.99984C0.204609 5.99984 0.00585938 7.61734 0.00585938 9.23859V10.7548C0.00585938 12.3723 0.204609 13.9936 0.204609 13.9936C0.204609 13.9936 0.399609 15.3723 0.997109 15.9786C1.75836 16.7748 2.75836 16.7486 3.20461 16.8336C4.80586 16.9861 10.0059 17.0323 10.0059 17.0323C10.0059 17.0323 14.2096 17.0248 17.0059 16.8248C17.3971 16.7786 18.2484 16.7736 19.0096 15.9773C19.6109 15.3723 19.8059 13.9923 19.8059 13.9923C19.8059 13.9923 20.0046 12.3748 20.0046 10.7536V9.23734C20.0009 7.61984 19.8021 5.99859 19.8021 5.99859L19.8009 5.99984ZM7.93336 12.5936V6.97234L13.3359 9.79234L7.93336 12.5936Z" fill="white"/>
</g>
<defs>
<clipPath id="clip0_689_50663">
<rect width="20" height="20" fill="white"/>
</clipPath>
</defs>
</svg>
