<svg width="19" height="22" viewBox="0 0 19 22" fill="none" xmlns="http://www.w3.org/2000/svg">
<path d="M14.6911 5.4125C14.6911 6.84798 14.1208 8.22467 13.1058 9.23971C12.0907 10.2548 10.7141 10.825 9.27857 10.825C7.84309 10.825 6.4664 10.2548 5.45136 9.23971C4.43632 8.22467 3.86607 6.84798 3.86607 5.4125C3.86607 3.97702 4.43632 2.60033 5.45136 1.58528C6.4664 0.570244 7.84309 0 9.27857 0C10.7141 0 12.0907 0.570244 13.1058 1.58528C14.1208 2.60033 14.6911 3.97702 14.6911 5.4125ZM13.1446 5.4125C13.1446 4.38715 12.7373 3.4038 12.0123 2.67877C11.2873 1.95375 10.3039 1.54643 9.27857 1.54643C8.25323 1.54643 7.26988 1.95375 6.54485 2.67877C5.81982 3.4038 5.4125 4.38715 5.4125 5.4125C5.4125 6.43785 5.81982 7.4212 6.54485 8.14622C7.26988 8.87125 8.25323 9.27857 9.27857 9.27857C10.3039 9.27857 11.2873 8.87125 12.0123 8.14622C12.7373 7.4212 13.1446 6.43785 13.1446 5.4125ZM2.70625 12.3714C1.98851 12.3714 1.30016 12.6565 0.792642 13.1641C0.285122 13.6716 0 14.3599 0 15.0777V15.4643C0 17.3146 1.17761 18.8796 2.84929 19.9435C4.53026 21.0136 6.80583 21.65 9.27857 21.65C11.7513 21.65 14.0261 21.0136 15.7078 19.9435C17.3795 18.8796 18.5571 17.3146 18.5571 15.4643V15.0777C18.5571 14.3599 18.272 13.6716 17.7645 13.1641C17.257 12.6565 16.5686 12.3714 15.8509 12.3714H2.70625ZM1.54643 15.0777C1.54643 14.7701 1.66862 14.4751 1.88613 14.2576C2.10364 14.0401 2.39865 13.9179 2.70625 13.9179H15.8509C16.1585 13.9179 16.4535 14.0401 16.671 14.2576C16.8885 14.4751 17.0107 14.7701 17.0107 15.0777V15.4643C17.0107 16.6032 16.2839 17.7445 14.8774 18.6391C13.4802 19.5283 11.5031 20.1036 9.27857 20.1036C7.05403 20.1036 5.07692 19.5283 3.67973 18.6391C2.27248 17.7453 1.54643 16.6025 1.54643 15.4643V15.0777Z" fill="white"/>
</svg>
