<svg width="58" height="23" viewBox="0 0 58 23" fill="none" xmlns="http://www.w3.org/2000/svg">
<g clip-path="url(#clip0_689_50625)">
<path d="M40.9186 6.20696C42.5055 6.20696 43.7318 6.63979 44.6696 7.50544C45.6073 8.37099 46.04 9.52516 46.04 10.9678V17.8926H44.0203V16.3059H43.9482C43.0826 17.6044 41.8563 18.2535 40.4136 18.2535C39.1873 18.2535 38.1053 17.8928 37.2397 17.1715C36.4462 16.4502 35.9412 15.4403 35.9412 14.3583C35.9412 13.2041 36.3741 12.2663 37.2397 11.545C38.1053 10.8236 39.3316 10.5351 40.7743 10.5351C42.0727 10.5351 43.0826 10.7516 43.876 11.2565V10.7516C43.876 10.0783 43.6247 9.40509 43.122 8.96639L43.0104 8.87609C42.4333 8.3711 41.712 8.08259 40.9186 8.08259C39.6923 8.08259 38.7545 8.58753 38.1053 9.59743L36.2299 8.44303C37.3839 6.92819 38.8988 6.20696 40.9186 6.20696ZM30.7476 1.30176C32.042 1.30176 33.272 1.75217 34.2555 2.59213L34.4265 2.74433C35.4364 3.60999 35.9412 4.90847 35.9412 6.279C35.9412 7.64953 35.4364 8.87586 34.4265 9.81356C33.4167 10.7513 32.1903 11.2562 30.7476 11.2562L27.2852 11.1841V17.8926H25.1211V1.30176H30.7476ZM41.207 12.2662C40.3414 12.2662 39.6201 12.4826 39.0431 12.9154C38.466 13.276 38.1774 13.7809 38.1774 14.4301C38.1774 15.0073 38.4661 15.5121 38.8988 15.8008C39.4038 16.1614 39.9808 16.3778 40.5579 16.3778C41.3657 16.3778 42.1737 16.0636 42.8056 15.4939L42.9383 15.3679C43.6597 14.7188 44.0203 13.9253 44.0203 13.0596C43.3711 12.5547 42.4333 12.2661 41.2071 12.2661M30.8921 3.32136H27.2853V9.09244H30.8921C31.6855 9.09244 32.4789 8.80393 32.9839 8.2269C34.138 7.14489 34.138 5.34153 33.0561 4.2594L32.9839 4.18724C32.4068 3.61021 31.6855 3.24954 30.892 3.3217M57.7258 6.56763L50.5846 22.9422H48.4205L51.0894 17.2436L46.4007 6.63979H48.7091L52.0993 14.7909H52.1715L55.4897 6.63979H57.7258V6.56763Z" fill="white"/>
<path d="M18.7009 9.7415C18.7009 9.09232 18.6288 8.44313 18.5566 7.79395H9.54004V11.4728H14.6615C14.4451 12.6269 13.7959 13.7089 12.7861 14.3582V16.7386H15.8878C17.6912 15.0795 18.701 12.6269 18.701 9.74162" fill="#4285F4"/>
<path d="M9.54012 19.0475C12.1369 19.0475 14.3009 18.1819 15.8879 16.7392L12.7862 14.3588C11.9205 14.9358 10.8385 15.2965 9.54012 15.2965C7.08747 15.2965 4.92344 13.6374 4.20209 11.3291H1.02832V13.7816C2.68736 17.0277 5.93341 19.0475 9.54012 19.0475Z" fill="#34A853"/>
<path d="M4.20176 11.3287C3.76904 10.1745 3.76904 8.87614 4.20176 7.64981V5.19727H1.02798C-0.34266 7.86628 -0.34266 11.0402 1.02798 13.7812L4.20176 11.3287Z" fill="#FBBC04"/>
<path d="M9.53937 3.7549C10.9099 3.7549 12.2083 4.25989 13.2182 5.19759L15.9593 2.45653C14.228 0.869529 11.9198 -0.0681724 9.61141 0.00387172C6.0047 0.00387172 2.68661 2.0237 1.09961 5.26974L4.2735 7.72229C4.92268 5.41395 7.08671 3.7549 9.53937 3.7549Z" fill="#EA4335"/>
</g>
<defs>
<clipPath id="clip0_689_50625">
<rect width="57.7255" height="23" fill="white"/>
</clipPath>
</defs>
</svg>
