<svg width="20" height="20" viewBox="0 0 20 20" fill="none" xmlns="http://www.w3.org/2000/svg">
<path fill-rule="evenodd" clip-rule="evenodd" d="M11.6663 1.66699C12.1084 1.66699 12.5323 1.84259 12.8449 2.15515C13.1574 2.46771 13.333 2.89163 13.333 3.33366C13.3334 3.90959 13.5324 4.46775 13.8965 4.91405C14.2605 5.36035 14.7673 5.66748 15.3313 5.78366C15.7645 5.87162 16.145 6.12807 16.3891 6.49657C16.6333 6.86508 16.721 7.31547 16.633 7.74866C16.545 8.18185 16.2886 8.56235 15.9201 8.80646C15.5516 9.05057 15.1012 9.13829 14.668 9.05032C14.2066 8.95614 13.7584 8.80644 13.333 8.60449V13.3337C13.333 14.2689 13.0706 15.1853 12.5758 15.9789C12.081 16.7724 11.3736 17.4113 10.5339 17.823C9.69416 18.2346 8.75582 18.4025 7.82545 18.3076C6.89509 18.2127 6.00999 17.8587 5.27072 17.286C4.53144 16.7132 3.96762 15.9446 3.6433 15.0674C3.31898 14.1902 3.24717 13.2397 3.43601 12.3238C3.62486 11.4079 4.06679 10.5632 4.71162 9.8859C5.35644 9.20856 6.1783 8.72563 7.08384 8.49199C7.50919 8.38941 7.95781 8.45821 8.33287 8.68353C8.70794 8.90885 8.97935 9.27262 9.08853 9.69632C9.19771 10.12 9.1359 10.5697 8.91643 10.9482C8.69697 11.3267 8.33746 11.6037 7.91551 11.7195C7.52482 11.8232 7.18506 12.0651 6.95935 12.4005C6.73365 12.7358 6.63737 13.1417 6.6884 13.5426C6.73942 13.9436 6.93429 14.3124 7.23678 14.5805C7.53927 14.8486 7.92881 14.9978 8.33301 15.0003C8.77504 15.0003 9.19896 14.8247 9.51152 14.5122C9.82408 14.1996 9.99968 13.7757 9.99968 13.3337V3.33366C9.99968 2.89163 10.1753 2.46771 10.4878 2.15515C10.8004 1.84259 11.2243 1.66699 11.6663 1.66699Z" fill="white"/>
</svg>
