<svg width="12" height="12" viewBox="0 0 12 12" fill="none" xmlns="http://www.w3.org/2000/svg">
<path d="M2.19866 3.86802L5.71241 7.32627C5.78907 7.40211 5.89256 7.44465 6.00041 7.44465C6.10825 7.44465 6.21174 7.40211 6.28841 7.32627L9.80216 3.86877C9.8793 3.79296 9.98313 3.75048 10.0913 3.75048C10.1994 3.75048 10.3033 3.79296 10.3804 3.86877C10.4184 3.9058 10.4486 3.95006 10.4692 3.99894C10.4898 4.04783 10.5004 4.10034 10.5004 4.15339C10.5004 4.20644 10.4898 4.25896 10.4692 4.30784C10.4486 4.35672 10.4184 4.40098 10.3804 4.43802L6.86741 7.89552C6.63601 8.12271 6.32469 8.25 6.00041 8.25C5.67612 8.25 5.3648 8.12271 5.13341 7.89552L1.62041 4.43802C1.5823 4.40097 1.55202 4.35666 1.53134 4.30771C1.51066 4.25876 1.5 4.20616 1.5 4.15302C1.5 4.09987 1.51066 4.04727 1.53134 3.99832C1.55202 3.94937 1.5823 3.90506 1.62041 3.86802C1.69755 3.79221 1.80138 3.74973 1.90953 3.74973C2.01769 3.74973 2.12151 3.79221 2.19866 3.86802Z" fill="white"/>
</svg>
