<svg width="17" height="17" viewBox="0 0 17 17" fill="none" xmlns="http://www.w3.org/2000/svg">
<path d="M0.390782 14.3908C-0.130134 14.9117 -0.130134 15.7563 0.390783 16.2772C0.911699 16.7981 1.75627 16.7981 2.27719 16.2772L1.33398 15.334L0.390782 14.3908ZM16.6679 1.33398C16.6679 0.597297 16.0707 9.47194e-05 15.334 9.6057e-05L3.32898 9.65209e-05C2.5923 9.65519e-05 1.99509 0.597299 1.99509 1.33398C1.99509 2.07067 2.5923 2.66787 3.32898 2.66787L14.0001 2.66787L14.0001 13.339C14.0001 14.0757 14.5973 14.6729 15.334 14.6729C16.0707 14.6729 16.6679 14.0757 16.6679 13.339L16.6679 1.33398ZM1.33398 15.334L2.27719 16.2772L16.2772 2.27719L15.334 1.33398L14.3908 0.390782L0.390782 14.3908L1.33398 15.334Z" fill="white"/>
</svg>
