<svg width="26" height="26" viewBox="0 0 26 26" fill="none" xmlns="http://www.w3.org/2000/svg">
<g clip-path="url(#clip0_689_51083)">
<mask id="mask0_689_51083" style="mask-type:alpha" maskUnits="userSpaceOnUse" x="0" y="0" width="26" height="25">
<path fill-rule="evenodd" clip-rule="evenodd" d="M7.36816 22.1053C7.36816 20.9426 8.31072 20 9.47343 20C10.6361 20 11.5787 20.9426 11.5787 22.1053C11.5787 23.268 10.6361 24.2105 9.47343 24.2105C8.31072 24.2105 7.36816 23.268 7.36816 22.1053Z" fill="#7A869A"/>
<path fill-rule="evenodd" clip-rule="evenodd" d="M18.9473 22.1053C18.9473 20.9426 19.8898 20 21.0525 20C22.2152 20 23.1578 20.9426 23.1578 22.1053C23.1578 23.268 22.2152 24.2105 21.0525 24.2105C19.8898 24.2105 18.9473 23.268 18.9473 22.1053Z" fill="#7A869A"/>
<path fill-rule="evenodd" clip-rule="evenodd" d="M0 1.05263C0 0.471279 0.471279 0 1.05263 0H5.26316C5.76487 0 6.19685 0.35409 6.29532 0.846045L7.1794 5.26316H24.2105C24.5242 5.26316 24.8216 5.40308 25.0216 5.64479C25.2215 5.88651 25.3033 6.20482 25.2445 6.51298L23.5588 15.3524C23.4144 16.0794 23.0189 16.7324 22.4416 17.1971C21.8672 17.6595 21.1491 17.9063 20.412 17.8947H10.1986C9.46145 17.9063 8.74337 17.6595 8.16893 17.1971C7.59184 16.7326 7.19646 16.0799 7.05193 15.3533C7.05187 15.353 7.05198 15.3536 7.05193 15.3533L5.29346 6.56758C5.28633 6.53852 5.2804 6.50898 5.27574 6.47903L4.40033 2.10526H1.05263C0.471279 2.10526 0 1.63398 0 1.05263ZM7.60077 7.36842L9.11668 14.9423C9.1648 15.1846 9.29663 15.4023 9.48907 15.5572C9.68151 15.7121 9.9223 15.7944 10.1693 15.7897L10.1895 15.7895H20.4211L20.4412 15.7897C20.6882 15.7944 20.929 15.7121 21.1215 15.5572C21.313 15.403 21.4445 15.1866 21.4932 14.9457L22.9382 7.36842H7.60077Z" fill="#7A869A"/>
</mask>
<g mask="url(#mask0_689_51083)">
<rect width="25.2632" height="25.2632" fill="white"/>
</g>
</g>
<defs>
<clipPath id="clip0_689_51083">
<rect width="25.2632" height="25.2632" fill="white"/>
</clipPath>
</defs>
</svg>
