<svg width="52" height="17" viewBox="0 0 52 17" fill="none" xmlns="http://www.w3.org/2000/svg">
<path d="M19.7431 0.294561L12.935 16.4264H8.49347L5.14313 3.55168C4.94 2.76061 4.76348 2.46947 4.14538 2.13496C3.13503 1.58982 1.46656 1.07999 0 0.762833L0.0989219 0.294561H7.24973C8.15973 0.294561 8.97914 0.896395 9.18755 1.93846L10.9578 11.2742L15.3282 0.294561H19.7431ZM25.7475 0.294561L22.2735 16.4264H18.0712L21.5457 0.294561H25.7475ZM37.1461 11.1594C37.1635 6.90262 31.2201 6.66637 31.2589 4.76443C31.2731 4.1862 31.8277 3.57065 33.0415 3.41328C33.6428 3.33601 35.3039 3.27447 37.1855 4.13556L37.9216 0.712596C36.9107 0.349439 35.6096 0 33.9913 0C29.8374 0 26.9155 2.19146 26.8921 5.33196C26.8649 7.65496 28.9792 8.94962 30.5693 9.72335C32.2071 10.5134 32.7563 11.0212 32.7488 11.7274C32.737 12.8098 31.4407 13.289 30.2356 13.3067C28.1223 13.34 26.8972 12.7394 25.92 12.2872L25.1572 15.8236C26.1404 16.2711 27.9522 16.6599 29.8289 16.6796C34.2448 16.6796 37.1331 14.5132 37.1461 11.1594ZM48.1148 16.4266H52L48.6058 0.294561H45.0212C44.2128 0.294561 43.5333 0.760614 43.2319 1.47704L36.9269 16.4264H41.3394L42.2147 14.0167H47.6056L48.1148 16.4266ZM43.4247 10.7111L45.6371 4.65306L46.9081 10.7111H43.4247Z" fill="#152883"/>
</svg>
