<svg width="22" height="21" viewBox="0 0 22 21" fill="none" xmlns="http://www.w3.org/2000/svg">
<path d="M20.1642 5.09412H15.7069V4.88186C15.7069 3.58711 15.1925 2.34539 14.277 1.42986C13.3615 0.514338 12.1198 0 10.825 0C9.53025 0 8.28853 0.514338 7.373 1.42986C6.45747 2.34539 5.94314 3.58711 5.94314 4.88186V5.09412H1.48578C1.09173 5.09412 0.713815 5.25065 0.435176 5.52929C0.156538 5.80793 0 6.18585 0 6.5799V19.3152C0 19.7093 0.156538 20.0872 0.435176 20.3658C0.713815 20.6444 1.09173 20.801 1.48578 20.801H20.1642C20.5583 20.801 20.9362 20.6444 21.2148 20.3658C21.4935 20.0872 21.65 19.7093 21.65 19.3152V6.5799C21.65 6.18585 21.4935 5.80793 21.2148 5.52929C20.9362 5.25065 20.5583 5.09412 20.1642 5.09412ZM7.21667 4.88186C7.21667 3.92487 7.59683 3.00708 8.27352 2.33039C8.95022 1.65369 9.86801 1.27353 10.825 1.27353C11.782 1.27353 12.6998 1.65369 13.3765 2.33039C14.0532 3.00708 14.4333 3.92487 14.4333 4.88186V5.09412H7.21667V4.88186ZM20.3765 19.3152C20.3765 19.3715 20.3541 19.4255 20.3143 19.4653C20.2745 19.5051 20.2205 19.5275 20.1642 19.5275H1.48578C1.42949 19.5275 1.3755 19.5051 1.3357 19.4653C1.29589 19.4255 1.27353 19.3715 1.27353 19.3152V6.5799C1.27353 6.52361 1.29589 6.46962 1.3357 6.42981C1.3755 6.39001 1.42949 6.36765 1.48578 6.36765H20.1642C20.2205 6.36765 20.2745 6.39001 20.3143 6.42981C20.3541 6.46962 20.3765 6.52361 20.3765 6.5799V19.3152Z" fill="white"/>
</svg>
